<svg width="44" height="44" viewBox="0 0 44 44" fill="none" xmlns="http://www.w3.org/2000/svg">
<g clip-path="url(#clip0_171_351)">
<path d="M31.1657 20.1667V5.5H12.8324V12.8333H5.49902V38.5H20.1657V31.1667H23.8324V38.5H38.499V20.1667H31.1657ZM12.8324 34.8333H9.16569V31.1667H12.8324V34.8333ZM12.8324 27.5H9.16569V23.8333H12.8324V27.5ZM12.8324 20.1667H9.16569V16.5H12.8324V20.1667ZM20.1657 27.5H16.499V23.8333H20.1657V27.5ZM20.1657 20.1667H16.499V16.5H20.1657V20.1667ZM20.1657 12.8333H16.499V9.16667H20.1657V12.8333ZM27.499 27.5H23.8324V23.8333H27.499V27.5ZM27.499 20.1667H23.8324V16.5H27.499V20.1667ZM27.499 12.8333H23.8324V9.16667H27.499V12.8333ZM34.8324 34.8333H31.1657V31.1667H34.8324V34.8333ZM34.8324 27.5H31.1657V23.8333H34.8324V27.5Z" fill="#5A6072"/>
</g>
<defs>
<clipPath id="clip0_171_351">
<rect width="44" height="44" fill="white"/>
</clipPath>
</defs>
</svg>
