<svg width="15" height="20" viewBox="0 0 15 20" fill="none" xmlns="http://www.w3.org/2000/svg">
<path d="M-0.000593185 1.00057L-0.000593185 19.0006C-2.18542e-05 19.1828 0.0502413 19.3614 0.144785 19.5173C0.239329 19.6731 0.374572 19.8001 0.535959 19.8848C0.697347 19.9694 0.878767 20.0085 1.06069 19.9977C1.24261 19.9869 1.41815 19.9267 1.56841 19.8236L14.5684 10.8236C15.1074 10.4506 15.1074 9.55257 14.5684 9.17857L1.56841 0.178574C1.41846 0.0743986 1.24284 0.0133079 1.06061 0.00193892C0.878386 -0.00943004 0.696529 0.0293576 0.5348 0.114088C0.37307 0.198818 0.237653 0.32625 0.143263 0.482538C0.0488727 0.638826 -0.000880769 0.817994 -0.000593185 1.00057Z" fill="black"/>
</svg>
