<svg width="45" height="45" viewBox="0 0 45 45" fill="none" xmlns="http://www.w3.org/2000/svg">
<g clip-path="url(#clip0_170_229)">
<path d="M34.0875 18.75L30.9 9.975C30.3562 8.49375 28.95 7.5 27.375 7.5H22.5V11.25H27.375L30.1125 18.75H21.0938L20.4188 16.875H22.5V13.125H13.125V16.875H16.4062L19.8187 26.25H18.5625C17.7375 22.0688 14.2312 18.975 9.84375 18.7688C4.59375 18.5063 0 22.875 0 28.125C0 33.375 4.125 37.5 9.375 37.5C13.9875 37.5 17.7188 34.3312 18.5625 30H26.4375C27.2625 34.1812 30.7687 37.275 35.1562 37.4812C40.4062 37.725 45 33.375 45 28.1062C45 22.8562 40.875 18.7312 35.625 18.7312H34.0875V18.75ZM14.6625 30C13.9125 32.1938 11.8687 33.75 9.375 33.75C6.225 33.75 3.75 31.275 3.75 28.125C3.75 24.975 6.225 22.5 9.375 22.5C11.8687 22.5 13.9125 24.0562 14.6625 26.25H9.375V30H14.6625ZM26.4375 26.25H23.8125L22.4438 22.5H28.125C27.3 23.5875 26.7 24.8438 26.4375 26.25ZM35.625 33.75C32.475 33.75 30 31.275 30 28.125C30 26.3813 30.7687 24.8813 31.9687 23.85L33.7687 28.8L37.2937 27.525L35.475 22.5188C35.5312 22.5188 35.5875 22.5 35.6437 22.5C38.7938 22.5 41.2687 24.975 41.2687 28.125C41.2687 31.275 38.775 33.75 35.625 33.75Z" fill="#5A6072"/>
</g>
<defs>
<clipPath id="clip0_170_229">
<rect width="45" height="45" fill="white"/>
</clipPath>
</defs>
</svg>
