<svg width="44" height="44" viewBox="0 0 44 44" fill="none" xmlns="http://www.w3.org/2000/svg">
<g clip-path="url(#clip0_171_435)">
<path d="M34.6876 11.0182C34.321 9.9365 33.2943 9.1665 32.0843 9.1665H11.9176C10.7076 9.1665 9.69931 9.9365 9.31431 11.0182L5.50098 21.9998V36.6665C5.50098 37.6748 6.32598 38.4998 7.33431 38.4998H9.16764C10.176 38.4998 11.001 37.6748 11.001 36.6665V34.8332H33.001V36.6665C33.001 37.6748 33.826 38.4998 34.8343 38.4998H36.6676C37.676 38.4998 38.501 37.6748 38.501 36.6665V21.9998L34.6876 11.0182ZM12.5593 12.8332H31.4243L33.4043 18.5348H10.5793L12.5593 12.8332ZM34.8343 31.1665H9.16764V21.9998H34.8343V31.1665Z" fill="#5A6072"/>
<path d="M13.751 29.3335C15.2698 29.3335 16.501 28.1023 16.501 26.5835C16.501 25.0647 15.2698 23.8335 13.751 23.8335C12.2322 23.8335 11.001 25.0647 11.001 26.5835C11.001 28.1023 12.2322 29.3335 13.751 29.3335Z" fill="#5A6072"/>
<path d="M30.25 29.3335C31.7688 29.3335 33 28.1023 33 26.5835C33 25.0647 31.7688 23.8335 30.25 23.8335C28.7312 23.8335 27.5 25.0647 27.5 26.5835C27.5 28.1023 28.7312 29.3335 30.25 29.3335Z" fill="#5A6072"/>
<path d="M34.6876 11.0182C34.321 9.9365 33.2943 9.1665 32.0843 9.1665H11.9176C10.7076 9.1665 9.69931 9.9365 9.31431 11.0182L5.50098 21.9998V36.6665C5.50098 37.6748 6.32598 38.4998 7.33431 38.4998H9.16764C10.176 38.4998 11.001 37.6748 11.001 36.6665V34.8332H33.001V36.6665C33.001 37.6748 33.826 38.4998 34.8343 38.4998H36.6676C37.676 38.4998 38.501 37.6748 38.501 36.6665V21.9998L34.6876 11.0182ZM12.5593 12.8332H31.4243L33.4043 18.5348H10.5793L12.5593 12.8332ZM34.8343 31.1665H9.16764V21.9998H34.8343V31.1665Z" fill="#5A6072"/>
</g>
<defs>
<clipPath id="clip0_171_435">
<rect width="44" height="44" fill="white"/>
</clipPath>
</defs>
</svg>
