<svg width="45" height="45" viewBox="0 0 45 45" fill="none" xmlns="http://www.w3.org/2000/svg">
<g clip-path="url(#clip0_171_248)">
<path d="M3.72754 41.0097L29.8246 31.6893L13.0479 14.9126L3.72754 41.0097ZM23.0207 30.1608L9.879 34.8582L14.5765 21.7165L23.0207 30.1608Z" fill="#5A6072"/>
<path d="M27.0843 23.3569L37.5045 12.9367C38.4179 12.0233 39.8905 12.0233 40.8039 12.9367L41.9037 14.0365L43.8797 12.0606L42.7799 10.9608C40.7853 8.9662 37.5232 8.9662 35.5286 10.9608L25.1084 21.381L27.0843 23.3569Z" fill="#5A6072"/>
<path d="M18.7521 12.8249L17.6523 13.9247L19.6283 15.9006L20.7281 14.8008C22.7226 12.8062 22.7226 9.54408 20.7281 7.54951L19.6283 6.44971L17.6523 8.44427L18.7521 9.54408C19.6469 10.4388 19.6469 11.9301 18.7521 12.8249Z" fill="#5A6072"/>
<path d="M31.8008 22.1453L28.8369 25.1092L30.8128 27.0851L33.7767 24.1213C34.6901 23.2079 36.1627 23.2079 37.0761 24.1213L40.0773 27.1224L42.0532 25.1465L39.0521 22.1453C37.0389 20.1508 33.7954 20.1508 31.8008 22.1453Z" fill="#5A6072"/>
<path d="M28.0719 10.9609L21.3799 17.6529L23.3558 19.6289L30.0478 12.9368C32.0424 10.9423 32.0424 7.68013 30.0478 5.68556L27.084 2.72168L25.108 4.6976L28.0719 7.66149C28.9667 8.57488 28.9667 10.0661 28.0719 10.9609Z" fill="#5A6072"/>
</g>
<defs>
<clipPath id="clip0_171_248">
<rect width="44.7379" height="44.7379" fill="white"/>
</clipPath>
</defs>
</svg>
