<svg width="44" height="44" viewBox="0 0 44 44" fill="none" xmlns="http://www.w3.org/2000/svg">
<path d="M36.6673 14.6667V11C36.6673 7.975 34.1923 5.5 31.1673 5.5H12.834C9.80899 5.5 7.33398 7.975 7.33398 11V14.6667C4.30898 14.6667 1.83398 17.1417 1.83398 20.1667V29.3333C1.83398 32.3583 4.30898 34.8333 7.33398 34.8333V36.6667C7.33398 37.675 8.15899 38.5 9.16732 38.5C10.1757 38.5 11.0007 37.675 11.0007 36.6667V34.8333H33.0007V36.6667C33.0007 37.675 33.8257 38.5 34.834 38.5C35.8423 38.5 36.6673 37.675 36.6673 36.6667V34.8333C39.6923 34.8333 42.1673 32.3583 42.1673 29.3333V20.1667C42.1673 17.1417 39.6923 14.6667 36.6673 14.6667ZM11.0007 11C11.0007 9.99167 11.8257 9.16667 12.834 9.16667H31.1673C32.1757 9.16667 33.0007 9.99167 33.0007 11V16.0967C31.8823 17.105 31.1673 18.5533 31.1673 20.1667V23.8333H12.834V20.1667C12.834 18.5533 12.119 17.105 11.0007 16.0967V11ZM38.5007 29.3333C38.5007 30.3417 37.6757 31.1667 36.6673 31.1667H7.33398C6.32565 31.1667 5.50065 30.3417 5.50065 29.3333V20.1667C5.50065 19.1583 6.32565 18.3333 7.33398 18.3333C8.34232 18.3333 9.16732 19.1583 9.16732 20.1667V27.5H34.834V20.1667C34.834 19.1583 35.659 18.3333 36.6673 18.3333C37.6757 18.3333 38.5007 19.1583 38.5007 20.1667V29.3333Z" fill="#5A6072"/>
</svg>
