<svg width="45" height="45" viewBox="0 0 45 45" fill="none" xmlns="http://www.w3.org/2000/svg">
<g clip-path="url(#clip0_170_238)">
<path d="M11.8506 24.3938C13.6506 24.4313 15.3193 25.3313 16.4443 26.9063C17.8131 28.8375 20.0818 30 22.5006 30C24.9193 30 27.1881 28.8375 28.5568 26.8875C29.6818 25.3125 31.3506 24.4125 33.1506 24.375C31.8006 22.0875 26.4006 20.625 22.5006 20.625C18.6193 20.625 13.2006 22.0875 11.8506 24.3938Z" fill="#5A6072"/>
<path d="M7.5 24.375C10.6125 24.375 13.125 21.8625 13.125 18.75C13.125 15.6375 10.6125 13.125 7.5 13.125C4.3875 13.125 1.875 15.6375 1.875 18.75C1.875 21.8625 4.3875 24.375 7.5 24.375Z" fill="#5A6072"/>
<path d="M37.5 24.375C40.6125 24.375 43.125 21.8625 43.125 18.75C43.125 15.6375 40.6125 13.125 37.5 13.125C34.3875 13.125 31.875 15.6375 31.875 18.75C31.875 21.8625 34.3875 24.375 37.5 24.375Z" fill="#5A6072"/>
<path d="M22.5 18.75C25.6125 18.75 28.125 16.2375 28.125 13.125C28.125 10.0125 25.6125 7.5 22.5 7.5C19.3875 7.5 16.875 10.0125 16.875 13.125C16.875 16.2375 19.3875 18.75 22.5 18.75Z" fill="#5A6072"/>
<path d="M39.375 26.25H33.2437C31.8 26.25 30.7125 27.0938 30.0937 27.975C30.0187 28.0875 27.5438 31.875 22.5 31.875C19.8188 31.875 16.8187 30.675 14.9062 27.975C14.175 26.9438 13.0312 26.25 11.7563 26.25H5.625C3.5625 26.25 1.875 27.9375 1.875 30V37.5H15V33.2625C17.1562 34.7625 19.7625 35.625 22.5 35.625C25.2375 35.625 27.8438 34.7625 30 33.2625V37.5H43.125V30C43.125 27.9375 41.4375 26.25 39.375 26.25Z" fill="#5A6072"/>
</g>
<defs>
<clipPath id="clip0_170_238">
<rect width="45" height="45" fill="white"/>
</clipPath>
</defs>
</svg>
