<svg width="44" height="44" viewBox="0 0 44 44" fill="none" xmlns="http://www.w3.org/2000/svg">
<g clip-path="url(#clip0_301_304)">
<path d="M37.713 27.2432L40.3346 24.6215L37.713 21.9998L31.168 28.5448L15.4563 12.8332L22.0013 6.28817L19.3796 3.6665L16.758 6.28817L14.1363 3.6665L10.213 7.58984L7.5913 4.96817L4.96964 7.58984L7.5913 10.2115L3.66797 14.1348L6.28964 16.7565L3.66797 19.3782L6.28964 21.9998L12.8346 15.4548L28.5463 31.1665L22.0013 37.7115L24.623 40.3332L27.2446 37.7115L29.8663 40.3332L33.7896 36.4098L36.4113 39.0315L39.033 36.4098L36.4113 33.7882L40.3346 29.8648L37.713 27.2432Z" fill="#5A6072"/>
</g>
<defs>
<clipPath id="clip0_301_304">
<rect width="44" height="44" fill="white"/>
</clipPath>
</defs>
</svg>
