<svg width="31" height="31" viewBox="0 0 31 31" fill="none" xmlns="http://www.w3.org/2000/svg">
<g clip-path="url(#clip0_169_90)">
<path d="M15.5007 2.58301C10.5019 2.58301 6.45898 6.62593 6.45898 11.6247C6.45898 18.4059 15.5007 28.4163 15.5007 28.4163C15.5007 28.4163 24.5423 18.4059 24.5423 11.6247C24.5423 6.62593 20.4994 2.58301 15.5007 2.58301ZM9.04232 11.6247C9.04232 8.05967 11.9357 5.16634 15.5007 5.16634C19.0657 5.16634 21.959 8.05967 21.959 11.6247C21.959 15.3447 18.239 20.9118 15.5007 24.3863C12.814 20.9376 9.04232 15.3059 9.04232 11.6247Z" fill="#5A6072"/>
<path d="M15.5007 14.8538C17.2841 14.8538 18.7298 13.4081 18.7298 11.6247C18.7298 9.84126 17.2841 8.39551 15.5007 8.39551C13.7172 8.39551 12.2715 9.84126 12.2715 11.6247C12.2715 13.4081 13.7172 14.8538 15.5007 14.8538Z" fill="#5A6072"/>
</g>
<defs>
<clipPath id="clip0_169_90">
<rect width="31" height="31" fill="white"/>
</clipPath>
</defs>
</svg>
