<svg width="113" height="51" viewBox="0 0 113 51" fill="none" xmlns="http://www.w3.org/2000/svg">
<path d="M4.46 27.22H13.42C15.1 27.22 16.46 25.82 16.46 24.16C16.46 22.48 15.1 21.08 13.42 21.08H4.46V27.22ZM0.5 21.08V19.1V17.12V7.04H4.46H12.58C16.44 7.04 19.58 10.2 19.58 14.06C19.58 15.16 19.34 16.2 18.9 17.12C18.6 17.7 18.26 18.22 17.84 18.72C17.98 18.84 18.14 18.96 18.28 19.1C18.88 19.68 19.36 20.36 19.72 21.08C20.18 22.02 20.42 23.04 20.42 24.16C20.42 28 17.26 31.18 13.42 31.18H4.46H0.5V21.08ZM4.46 17.12H12.58C14.26 17.12 15.64 15.74 15.64 14.06C15.64 12.38 14.26 11 12.58 11H4.46V17.12ZM25.358 31.18H21.418V22.18V7.04H25.358H33.778C37.938 7.04 41.338 10.46 41.338 14.6C41.338 18.58 38.218 21.86 34.298 22.16L41.338 31.18H36.298L29.298 22.18H25.358V31.18ZM25.358 18.22H29.158H31.218H33.778C35.758 18.22 37.378 16.58 37.378 14.6C37.378 12.62 35.738 11 33.778 11H25.358V18.22ZM54.3959 7.04H55.2759C61.9159 7.04 67.3359 12.46 67.3359 19.1C67.3359 25.74 61.9159 31.18 55.2759 31.18H54.3959C47.7559 31.18 42.3359 25.74 42.3359 19.1C42.3359 12.46 47.7559 7.04 54.3959 7.04ZM54.3959 11C49.9359 11 46.2759 14.64 46.2759 19.1C46.2759 23.56 49.9359 27.22 54.3959 27.22H55.2759C59.7359 27.22 63.3759 23.56 63.3759 19.1C63.3759 14.64 59.7359 11 55.2759 11H54.3959ZM80.392 27.22H81.272C84.072 27.22 86.552 25.78 88.012 23.6L91.292 25.8C89.112 29.04 85.432 31.18 81.272 31.18H80.392C77.292 31.18 74.432 29.98 72.292 28.02C69.872 25.82 68.332 22.64 68.332 19.1C68.332 15.58 69.872 12.4 72.292 10.18C74.432 8.24 77.292 7.04 80.392 7.04H81.272C85.432 7.04 89.112 9.18 91.292 12.42L88.012 14.6C86.552 12.44 84.072 11 81.272 11H80.392C75.932 11 72.292 14.64 72.292 19.1C72.292 23.56 75.932 27.22 80.392 27.22ZM92.2969 28.64V22.82V7.04H96.2569V8.76V15.58V18.52L97.4369 17.24L100.177 14.26L106.837 7.04H112.237L102.537 17.56L112.237 31.18H107.377L99.7969 20.54L96.2569 24.36V31.18H92.2969V28.64Z" fill="#EAEAEA"/>
<path d="M44.776 48.672H43.2V45.072V39.016H44.776H48.144C49.808 39.016 51.168 40.384 51.168 42.04C51.168 43.632 49.92 44.944 48.352 45.064L51.168 48.672H49.152L46.352 45.072H44.776V48.672ZM44.776 43.488H46.296H47.12H48.144C48.936 43.488 49.584 42.832 49.584 42.04C49.584 41.248 48.928 40.6 48.144 40.6H44.776V43.488ZM53.3767 44.088H56.6328H56.6567C56.6567 44.08 56.6487 44.08 56.6487 44.072C56.2968 43.544 55.6967 43.192 55.0167 43.192C54.3287 43.192 53.7287 43.544 53.3767 44.088ZM55.0167 48.672C54.2967 48.672 53.6247 48.456 53.0727 48.08C52.2567 47.544 51.6807 46.68 51.5207 45.664C51.5047 45.496 51.4887 45.312 51.4887 45.136C51.4887 44.776 51.5447 44.416 51.6407 44.088C51.8967 43.304 52.4007 42.64 53.0727 42.192C53.6247 41.824 54.2967 41.608 55.0167 41.608C56.2487 41.608 57.3288 42.24 57.9688 43.192C58.1448 43.464 58.2888 43.768 58.3847 44.088C58.4887 44.416 58.5448 44.776 58.5448 45.136C58.5448 45.312 58.5287 45.496 58.5048 45.664H56.8888H55.8407H54.2567H53.1447C53.3687 46.488 54.1287 47.088 55.0167 47.088C55.6967 47.088 56.2968 46.736 56.6487 46.2L57.9688 47.088C57.3288 48.032 56.2487 48.672 55.0167 48.672ZM62.5557 47.088C63.6277 47.088 64.4997 46.216 64.4997 45.136C64.4997 44.064 63.6277 43.192 62.5557 43.192C61.4757 43.192 60.6037 44.064 60.6037 45.136C60.6037 46.216 61.4757 47.088 62.5557 47.088ZM60.6037 48.08C59.6517 47.448 59.0197 46.368 59.0197 45.136C59.0197 43.912 59.6517 42.824 60.6037 42.192C61.1637 41.824 61.8357 41.608 62.5557 41.608C63.2757 41.608 63.9397 41.824 64.4997 42.192V41.608H66.0837V45.136V48.672H64.4997V48.08C63.9397 48.456 63.2757 48.672 62.5557 48.672C61.8357 48.672 61.1637 48.456 60.6037 48.08ZM66.8006 39.016H68.3846V48.672H66.8006V39.016ZM81.0059 47.088V48.672H74.2219V47.088V44.632V43.048V40.6V39.016H81.0059V40.6H75.8059V43.048H81.0059V44.632H75.8059V47.088H81.0059ZM83.3134 46.504C83.3134 46.824 83.5774 47.088 83.8894 47.088H86.6254C86.9454 47.088 87.2094 46.824 87.2094 46.504C87.2094 46.192 86.9454 45.928 86.6254 45.928H83.8894C83.6894 45.928 83.4974 45.896 83.3134 45.848C82.8814 45.728 82.4974 45.48 82.2174 45.136C82.0334 44.912 81.8894 44.64 81.8014 44.344C81.7534 44.16 81.7294 43.968 81.7294 43.768C81.7294 42.784 82.4014 41.936 83.3134 41.688C83.4974 41.632 83.6894 41.608 83.8894 41.608H86.6254C86.8254 41.608 87.0174 41.632 87.2094 41.688C88.1134 41.936 88.7934 42.784 88.7934 43.768H87.2094C87.2094 43.456 86.9454 43.192 86.6254 43.192H83.8894C83.5774 43.192 83.3134 43.456 83.3134 43.768C83.3134 44.088 83.5774 44.344 83.8894 44.344H86.6254C86.8254 44.344 87.0174 44.376 87.2094 44.424C87.6414 44.544 88.0174 44.8 88.2974 45.136C88.4814 45.368 88.6254 45.632 88.7134 45.928C88.7614 46.112 88.7934 46.304 88.7934 46.504C88.7934 47.496 88.1134 48.336 87.2094 48.592C87.0174 48.64 86.8254 48.672 86.6254 48.672H83.8894C83.6894 48.672 83.4974 48.64 83.3134 48.592C82.4014 48.336 81.7294 47.496 81.7294 46.504H83.3134ZM89.5103 45.136V39.704H91.0943V41.608H92.6863V43.192H91.0943V45.136C91.0943 46.216 91.9583 47.088 93.0383 47.088V48.672C92.3183 48.672 91.6463 48.456 91.0943 48.08C90.1423 47.448 89.5103 46.368 89.5103 45.136ZM96.9757 47.088C98.0477 47.088 98.9197 46.216 98.9197 45.136C98.9197 44.064 98.0477 43.192 96.9757 43.192C95.8957 43.192 95.0237 44.064 95.0237 45.136C95.0237 46.216 95.8957 47.088 96.9757 47.088ZM95.0237 48.08C94.0717 47.448 93.4397 46.368 93.4397 45.136C93.4397 43.912 94.0717 42.824 95.0237 42.192C95.5837 41.824 96.2557 41.608 96.9757 41.608C97.6957 41.608 98.3597 41.824 98.9197 42.192V41.608H100.504V45.136V48.672H98.9197V48.08C98.3597 48.456 97.6957 48.672 96.9757 48.672C96.2557 48.672 95.5837 48.456 95.0237 48.08ZM101.221 45.136V39.704H102.805V41.608H104.397V43.192H102.805V45.136C102.805 46.216 103.669 47.088 104.749 47.088V48.672C104.029 48.672 103.357 48.456 102.805 48.08C101.853 47.448 101.221 46.368 101.221 45.136ZM107.038 44.088H110.294H110.318C110.318 44.08 110.31 44.08 110.31 44.072C109.958 43.544 109.358 43.192 108.678 43.192C107.99 43.192 107.39 43.544 107.038 44.088ZM108.678 48.672C107.958 48.672 107.286 48.456 106.734 48.08C105.918 47.544 105.342 46.68 105.182 45.664C105.166 45.496 105.15 45.312 105.15 45.136C105.15 44.776 105.206 44.416 105.302 44.088C105.558 43.304 106.062 42.64 106.734 42.192C107.286 41.824 107.958 41.608 108.678 41.608C109.91 41.608 110.99 42.24 111.63 43.192C111.806 43.464 111.95 43.768 112.046 44.088C112.15 44.416 112.206 44.776 112.206 45.136C112.206 45.312 112.19 45.496 112.166 45.664H110.55H109.502H107.918H106.806C107.03 46.488 107.79 47.088 108.678 47.088C109.358 47.088 109.958 46.736 110.31 46.2L111.63 47.088C110.99 48.032 109.91 48.672 108.678 48.672Z" fill="#EAEAEA"/>
</svg>
