<svg width="36" height="37" viewBox="0 0 36 37" fill="none" xmlns="http://www.w3.org/2000/svg">
<path d="M6.00098 30.1616C5.17598 30.1616 4.46998 29.8681 3.88298 29.2811C3.29598 28.6941 3.00198 27.9876 3.00098 27.1616V9.16162C3.00098 8.33662 3.29498 7.63062 3.88298 7.04362C4.47098 6.45662 5.17698 6.16262 6.00098 6.16162H30.001C30.826 6.16162 31.5325 6.45562 32.1205 7.04362C32.7085 7.63162 33.002 8.33762 33.001 9.16162V27.1616C33.001 27.9866 32.7075 28.6931 32.1205 29.2811C31.5335 29.8691 30.827 30.1626 30.001 30.1616H6.00098ZM18.001 19.6616L6.00098 12.1616V27.1616H30.001V12.1616L18.001 19.6616ZM18.001 16.6616L30.001 9.16162H6.00098L18.001 16.6616ZM6.00098 12.1616V9.16162V27.1616V12.1616Z" fill="#5A6072"/>
</svg>
