<svg width="45" height="45" viewBox="0 0 45 45" fill="none" xmlns="http://www.w3.org/2000/svg">
<g clip-path="url(#clip0_301_354)">
<path d="M8.38871 22.3692C10.9625 22.3692 13.0489 20.2828 13.0489 17.709C13.0489 15.1353 10.9625 13.0488 8.38871 13.0488C5.81496 13.0488 3.72852 15.1353 3.72852 17.709C3.72852 20.2828 5.81496 22.3692 8.38871 22.3692Z" fill="#5A6072"/>
<path d="M16.7774 14.9127C19.3511 14.9127 21.4376 12.8262 21.4376 10.2525C21.4376 7.67873 19.3511 5.59229 16.7774 5.59229C14.2036 5.59229 12.1172 7.67873 12.1172 10.2525C12.1172 12.8262 14.2036 14.9127 16.7774 14.9127Z" fill="#5A6072"/>
<path d="M27.961 14.9127C30.5347 14.9127 32.6212 12.8262 32.6212 10.2525C32.6212 7.67873 30.5347 5.59229 27.961 5.59229C25.3872 5.59229 23.3008 7.67873 23.3008 10.2525C23.3008 12.8262 25.3872 14.9127 27.961 14.9127Z" fill="#5A6072"/>
<path d="M36.3496 22.3692C38.9234 22.3692 41.0098 20.2828 41.0098 17.709C41.0098 15.1353 38.9234 13.0488 36.3496 13.0488C33.7759 13.0488 31.6895 15.1353 31.6895 17.709C31.6895 20.2828 33.7759 22.3692 36.3496 22.3692Z" fill="#5A6072"/>
<path d="M32.3242 27.7001C30.7025 25.7988 29.3417 24.177 27.7013 22.2757C26.8438 21.2691 25.744 20.2625 24.4392 19.8151C24.2341 19.7405 24.0291 19.6846 23.824 19.6473C23.358 19.5728 22.8547 19.5728 22.37 19.5728C21.8854 19.5728 21.3821 19.5728 20.8974 19.666C20.6924 19.7032 20.4873 19.7592 20.2823 19.8337C18.9774 20.2811 17.8962 21.2877 17.0201 22.2943C15.3984 24.1957 14.0376 25.8174 12.3972 27.7188C9.95528 30.1607 6.95411 32.8636 7.51333 36.6477C8.05392 38.5491 9.41469 40.4318 11.8566 40.9724C13.2174 41.252 17.5607 40.1522 22.1836 40.1522H22.5192C27.1421 40.1522 31.4854 41.2333 32.8462 40.9724C35.2881 40.4318 36.6489 38.5304 37.1895 36.6477C37.7673 32.845 34.7661 30.1421 32.3242 27.7001Z" fill="#5A6072"/>
</g>
<defs>
<clipPath id="clip0_301_354">
<rect width="44.7379" height="44.7379" fill="white"/>
</clipPath>
</defs>
</svg>
