<svg width="37" height="37" viewBox="0 0 37 37" fill="none" xmlns="http://www.w3.org/2000/svg">
<path d="M33.6772 18.3693C33.6764 14.3097 32.0633 10.4166 29.1927 7.54598C26.3221 4.67538 22.429 3.06234 18.3693 3.06152V6.12309C20.7912 6.12364 23.1585 6.842 25.1723 8.1874C27.186 9.53281 28.7558 11.4449 29.6834 13.6821C30.2989 15.1681 30.6157 16.7609 30.6156 18.3693H33.6772ZM3.06152 15.3078V7.65387C3.06152 7.24788 3.2228 6.85852 3.50988 6.57144C3.79696 6.28437 4.18632 6.12309 4.59231 6.12309H12.2462C12.6522 6.12309 13.0416 6.28437 13.3286 6.57144C13.6157 6.85852 13.777 7.24788 13.777 7.65387V13.777C13.777 14.183 13.6157 14.5723 13.3286 14.8594C13.0416 15.1465 12.6522 15.3078 12.2462 15.3078H9.18465C9.18465 18.5557 10.4749 21.6706 12.7715 23.9672C15.0681 26.2638 18.183 27.554 21.4309 27.554V24.4925C21.4309 24.0865 21.5922 23.6971 21.8793 23.41C22.1663 23.123 22.5557 22.9617 22.9617 22.9617H29.0848C29.4908 22.9617 29.8802 23.123 30.1672 23.41C30.4543 23.6971 30.6156 24.0865 30.6156 24.4925V32.1464C30.6156 32.5524 30.4543 32.9417 30.1672 33.2288C29.8802 33.5159 29.4908 33.6772 29.0848 33.6772H21.4309C11.2864 33.6772 3.06152 25.4523 3.06152 15.3078Z" fill="#5A6072"/>
<path d="M26.8552 14.8541C27.3173 15.9682 27.5551 17.1626 27.5548 18.3688H24.7994C24.7996 17.5244 24.6334 16.6883 24.3104 15.9082C23.9874 15.128 23.5138 14.4192 22.9168 13.8221C22.3197 13.2251 21.6109 12.7515 20.8307 12.4285C20.0506 12.1054 19.2145 11.9393 18.3701 11.9395V9.18408C20.1866 9.18418 21.9623 9.72291 23.4726 10.7322C24.983 11.7414 26.1601 13.1759 26.8552 14.8541Z" fill="#5A6072"/>
</svg>
