<svg width="44" height="44" viewBox="0 0 44 44" fill="none" xmlns="http://www.w3.org/2000/svg">
<g clip-path="url(#clip0_170_234)">
<path d="M18.3327 14.667L12.3743 20.6253C12.9427 20.8453 13.401 21.1203 13.786 21.3403C14.4643 21.762 14.8677 22.0003 15.8943 22.0003C16.921 22.0003 17.3243 21.762 18.0027 21.3403C18.846 20.8453 19.9827 20.167 22.0177 20.167C24.0527 20.167 25.1893 20.8453 26.0143 21.3403C26.6927 21.7436 27.1143 22.0003 28.1227 22.0003C29.131 22.0003 29.5527 21.762 30.231 21.3403C30.451 21.212 30.7077 21.0653 30.9827 20.9186L19.2127 9.16696C16.371 6.32529 13.7493 5.48196 9.16602 5.50029V10.0836C12.5027 10.0653 14.4643 10.7986 16.4993 12.8336L18.3327 14.667ZM9.80768 28.417C10.816 28.417 11.2377 28.6736 11.916 29.077C12.741 29.572 13.8777 30.2503 15.9127 30.2503C17.9477 30.2503 19.0843 29.572 19.9093 29.077C20.5877 28.6553 20.991 28.417 22.0177 28.417C23.026 28.417 23.4477 28.6736 24.126 29.077C24.951 29.572 26.0877 30.2503 28.1227 30.2503C30.1577 30.2503 31.2943 29.572 32.1194 29.077C32.7977 28.6553 33.201 28.417 34.2277 28.417C35.236 28.417 35.6577 28.6736 36.336 29.077C37.161 29.572 38.2794 30.232 40.296 30.2503V26.5836C39.2877 26.5836 38.866 26.327 38.1877 25.9236C37.3627 25.4286 36.226 24.7503 34.191 24.7503C32.156 24.7503 31.0193 25.4286 30.1943 25.9236C29.516 26.3453 29.0943 26.5836 28.086 26.5836C27.0777 26.5836 26.656 26.327 25.9777 25.9236C25.1527 25.4286 24.016 24.7503 21.981 24.7503C19.946 24.7503 18.8094 25.4286 17.9844 25.9236C17.306 26.3453 16.9027 26.5836 15.876 26.5836C14.8677 26.5836 14.446 26.327 13.7677 25.9236C12.9427 25.4286 11.806 24.7503 9.77102 24.7503C7.73602 24.7503 6.59935 25.4286 5.77435 25.9236C5.09602 26.3453 4.69268 26.5836 3.66602 26.5836V30.2503C5.70102 30.2503 6.83768 29.572 7.69935 29.077C8.37768 28.6553 8.79935 28.417 9.80768 28.417ZM34.2277 33.0003C32.1927 33.0003 31.056 33.6786 30.231 34.1736C29.5527 34.5953 29.131 34.8336 28.1227 34.8336C27.1143 34.8336 26.6927 34.577 26.0143 34.1736C25.1893 33.6786 24.0527 33.0003 22.0177 33.0003C19.9827 33.0003 18.846 33.6786 18.0027 34.1736C17.3243 34.5953 16.921 34.8336 15.8943 34.8336C14.8677 34.8336 14.4643 34.5953 13.786 34.1736C12.961 33.6786 11.8243 33.0003 9.78935 33.0003C7.75435 33.0003 6.61768 33.6786 5.77435 34.1736C5.09602 34.5953 4.69268 34.8336 3.66602 34.8336V38.5003C5.70102 38.5003 6.83768 37.822 7.68102 37.327C8.35935 36.9053 8.78102 36.667 9.78935 36.667C10.7977 36.667 11.2193 36.9053 11.8977 37.327C12.7227 37.822 13.8593 38.5003 15.8943 38.5003C17.9293 38.5003 19.066 37.822 19.9093 37.327C20.5877 36.9053 20.991 36.667 22.0177 36.667C23.026 36.667 23.4477 36.9236 24.126 37.327C24.951 37.822 26.0877 38.5003 28.1227 38.5003C30.1577 38.5003 31.276 37.822 32.1194 37.327C32.7977 36.9053 33.201 36.667 34.2277 36.667C35.236 36.667 35.6577 36.9236 36.336 37.327C37.161 37.822 38.2977 38.5003 40.3327 38.5003V34.8336C39.306 34.8336 38.9027 34.5953 38.2243 34.1736C37.3993 33.6786 36.2627 33.0003 34.2277 33.0003Z" fill="#5A6072"/>
<path d="M30.2493 14.6667C32.7807 14.6667 34.8327 12.6146 34.8327 10.0833C34.8327 7.55203 32.7807 5.5 30.2493 5.5C27.718 5.5 25.666 7.55203 25.666 10.0833C25.666 12.6146 27.718 14.6667 30.2493 14.6667Z" fill="#5A6072"/>
</g>
<defs>
<clipPath id="clip0_170_234">
<rect width="44" height="44" fill="white"/>
</clipPath>
</defs>
</svg>
