<svg width="46" height="46" viewBox="0 0 46 46" fill="none" xmlns="http://www.w3.org/2000/svg">
<g clip-path="url(#clip0_301_351)">
<path d="M22.5596 10.3397L33.8396 18.7997V35.7197H11.2795V18.7997L22.5596 10.3397ZM22.5596 5.63965L7.51953 16.9197V39.4798H37.5996V16.9197L22.5596 5.63965ZM21.6196 17.8597V23.4997H20.6796V17.8597H18.7996V23.4997H17.8596V17.8597H15.9796V23.4997C15.9796 25.0601 17.2392 26.3197 18.7996 26.3197V33.8397H20.6796V26.3197C22.24 26.3197 23.4996 25.0601 23.4996 23.4997V17.8597H21.6196ZM24.4396 21.6197V27.2597H26.3196V33.8397H28.1996V17.8597C26.1316 17.8597 24.4396 19.5517 24.4396 21.6197Z" fill="#5A6072"/>
</g>
<defs>
<clipPath id="clip0_301_351">
<rect width="45.1202" height="45.1202" fill="white"/>
</clipPath>
</defs>
</svg>
