<svg width="45" height="45" viewBox="0 0 45 45" fill="none" xmlns="http://www.w3.org/2000/svg">
<path d="M7.45667 41.0096C6.43143 41.0096 5.55376 40.6445 4.82366 39.9144C4.09356 39.1843 3.72852 38.3067 3.72852 37.2814V7.45618C3.72852 6.43094 4.09356 5.55327 4.82366 4.82317C5.55376 4.09308 6.43143 3.72803 7.45667 3.72803H37.2819C38.3072 3.72803 39.1848 4.09308 39.9149 4.82317C40.645 5.55327 41.0101 6.43094 41.0101 7.45618V37.2814C41.0101 38.3067 40.645 39.1843 39.9149 39.9144C39.1848 40.6445 38.3072 41.0096 37.2819 41.0096H7.45667ZM7.45667 29.8251V37.2814H11.1848V33.5533H9.32075V29.8251H7.45667ZM7.45667 26.097H9.32075C9.32075 25.5688 9.49939 25.1261 9.85667 24.7688C10.214 24.4115 10.6567 24.2329 11.1848 24.2329V19.5727C11.1848 18.796 11.4567 18.1358 12.0004 17.5921C12.544 17.0484 13.2042 16.7766 13.9809 16.7766H17.7091C18.4858 16.7766 19.146 17.0484 19.6897 17.5921C20.2334 18.1358 20.5052 18.796 20.5052 19.5727V24.2329C21.0334 24.2329 21.4761 24.4115 21.8334 24.7688C22.1907 25.1261 22.3693 25.5688 22.3693 26.097H37.2819V7.45618H7.45667V26.097ZM12.1169 30.7572H19.5732V27.029H12.1169V30.7572ZM15.845 14.9125C15.0683 14.9125 14.4081 14.6406 13.8644 14.097C13.3207 13.5533 13.0489 12.8931 13.0489 12.1164C13.0489 11.3397 13.3207 10.6795 13.8644 10.1358C14.4081 9.59211 15.0683 9.32026 15.845 9.32026C16.6217 9.32026 17.2819 9.59211 17.8256 10.1358C18.3693 10.6795 18.6411 11.3397 18.6411 12.1164C18.6411 12.8931 18.3693 13.5533 17.8256 14.097C17.2819 14.6406 16.6217 14.9125 15.845 14.9125ZM14.913 37.2814H16.7771V33.5533H14.913V37.2814ZM20.5052 37.2814H37.2819V29.8251H22.3693V33.5533H20.5052V37.2814ZM22.8353 18.6406C22.8974 18.2368 22.9363 17.9339 22.9518 17.7319C22.9674 17.53 22.9751 17.3203 22.9751 17.1028C22.9751 16.761 22.9052 16.4348 22.7654 16.1241C22.6256 15.8135 22.3382 15.394 21.9033 14.8659C21.4373 14.2756 21.0877 13.6853 20.8547 13.095C20.6217 12.5047 20.5052 11.8989 20.5052 11.2775C20.5052 11.029 20.5207 10.7727 20.5518 10.5086L20.6916 9.32026H23.4877C23.4256 9.66201 23.379 9.98045 23.3479 10.2756C23.3169 10.5707 23.3013 10.9047 23.3013 11.2775C23.3013 11.6193 23.3712 11.9533 23.511 12.2795C23.6508 12.6057 23.8916 12.9552 24.2334 13.328C24.7926 14.0115 25.1965 14.6562 25.445 15.262C25.6936 15.8678 25.8178 16.4814 25.8178 17.1028C25.8178 17.4445 25.8023 17.7241 25.7712 17.9416C25.7402 18.1591 25.6936 18.3921 25.6314 18.6406H22.8353ZM27.4955 18.6406C27.5576 18.2368 27.5965 17.9339 27.612 17.7319C27.6275 17.53 27.6353 17.3203 27.6353 17.1028C27.6353 16.761 27.5654 16.4348 27.4256 16.1241C27.2858 15.8135 26.9984 15.394 26.5635 14.8659C26.0974 14.2756 25.7479 13.6853 25.5149 13.095C25.2819 12.5047 25.1654 11.8989 25.1654 11.2775C25.1654 11.029 25.1809 10.7727 25.212 10.5086L25.3518 9.32026H28.1479C28.0858 9.66201 28.0392 9.98045 28.0081 10.2756C27.9771 10.5707 27.9615 10.9047 27.9615 11.2775C27.9615 11.6193 28.0314 11.9533 28.1712 12.2795C28.311 12.6057 28.5518 12.9552 28.8936 13.328C29.4528 14.0115 29.8567 14.6562 30.1052 15.262C30.3538 15.8678 30.478 16.4814 30.478 17.1028C30.478 17.4445 30.4625 17.7241 30.4314 17.9416C30.4004 18.1591 30.3538 18.3921 30.2916 18.6406H27.4955ZM32.2489 18.6406C32.311 18.2368 32.3499 17.9339 32.3654 17.7319C32.3809 17.53 32.3887 17.3203 32.3887 17.1028C32.3887 16.761 32.3188 16.4348 32.179 16.1241C32.0392 15.8135 31.7518 15.394 31.3169 14.8659C30.8508 14.2756 30.5013 13.6853 30.2683 13.095C30.0353 12.5047 29.9188 11.8989 29.9188 11.2775C29.9188 11.029 29.9343 10.7727 29.9654 10.5086L30.1052 9.32026H32.9013C32.8392 9.66201 32.7926 9.98045 32.7615 10.2756C32.7305 10.5707 32.7149 10.9047 32.7149 11.2775C32.7149 11.6193 32.7848 11.9533 32.9246 12.2795C33.0644 12.6057 33.3052 12.9552 33.647 13.328C34.2062 14.0115 34.6101 14.6562 34.8586 15.262C35.1072 15.8678 35.2314 16.4814 35.2314 17.1028C35.2314 17.4445 35.2159 17.7241 35.1848 17.9416C35.1538 18.1591 35.1072 18.3921 35.045 18.6406H32.2489Z" fill="#5A6072"/>
</svg>
