<svg width="25" height="25" viewBox="0 0 25 25" fill="none" xmlns="http://www.w3.org/2000/svg">
<g clip-path="url(#clip0_169_94)">
<path d="M18.75 16.7497C17.9583 16.7497 17.25 17.0622 16.7083 17.5518L9.28125 13.2288C9.33333 12.9893 9.375 12.7497 9.375 12.4997C9.375 12.2497 9.33333 12.0101 9.28125 11.7705L16.625 7.48926C17.1875 8.01009 17.9271 8.33301 18.75 8.33301C20.4792 8.33301 21.875 6.93717 21.875 5.20801C21.875 3.47884 20.4792 2.08301 18.75 2.08301C17.0208 2.08301 15.625 3.47884 15.625 5.20801C15.625 5.45801 15.6667 5.69759 15.7188 5.93717L8.375 10.2184C7.8125 9.69759 7.07292 9.37467 6.25 9.37467C4.52083 9.37467 3.125 10.7705 3.125 12.4997C3.125 14.2288 4.52083 15.6247 6.25 15.6247C7.07292 15.6247 7.8125 15.3018 8.375 14.7809L15.7917 19.1143C15.7396 19.333 15.7083 19.5622 15.7083 19.7913C15.7083 21.4684 17.0729 22.833 18.75 22.833C20.4271 22.833 21.7917 21.4684 21.7917 19.7913C21.7917 18.1143 20.4271 16.7497 18.75 16.7497ZM18.75 4.16634C19.3229 4.16634 19.7917 4.63509 19.7917 5.20801C19.7917 5.78092 19.3229 6.24967 18.75 6.24967C18.1771 6.24967 17.7083 5.78092 17.7083 5.20801C17.7083 4.63509 18.1771 4.16634 18.75 4.16634ZM6.25 13.5413C5.67708 13.5413 5.20833 13.0726 5.20833 12.4997C5.20833 11.9268 5.67708 11.458 6.25 11.458C6.82292 11.458 7.29167 11.9268 7.29167 12.4997C7.29167 13.0726 6.82292 13.5413 6.25 13.5413ZM18.75 20.8538C18.1771 20.8538 17.7083 20.3851 17.7083 19.8122C17.7083 19.2393 18.1771 18.7705 18.75 18.7705C19.3229 18.7705 19.7917 19.2393 19.7917 19.8122C19.7917 20.3851 19.3229 20.8538 18.75 20.8538Z" fill="#3E434F"/>
</g>
<defs>
<clipPath id="clip0_169_94">
<rect width="25" height="25" fill="white"/>
</clipPath>
</defs>
</svg>
