<svg width="44" height="44" viewBox="0 0 44 44" fill="none" xmlns="http://www.w3.org/2000/svg">
<g clip-path="url(#clip0_171_390)">
<path d="M16.4993 31.1667C16.4993 32.175 15.6743 33 14.666 33C13.6577 33 12.8327 32.175 12.8327 31.1667C12.8327 30.1583 13.6577 29.3333 14.666 29.3333C15.6743 29.3333 16.4993 30.1583 16.4993 31.1667ZM21.9993 29.3333C20.991 29.3333 20.166 30.1583 20.166 31.1667C20.166 32.175 20.991 33 21.9993 33C23.0077 33 23.8327 32.175 23.8327 31.1667C23.8327 30.1583 23.0077 29.3333 21.9993 29.3333ZM29.3327 29.3333C28.3243 29.3333 27.4993 30.1583 27.4993 31.1667C27.4993 32.175 28.3243 33 29.3327 33C30.341 33 31.166 32.175 31.166 31.1667C31.166 30.1583 30.341 29.3333 29.3327 29.3333ZM34.8327 22V25.6667H9.16602V22C9.16602 15.5283 13.951 10.2117 20.166 9.31333V5.5H23.8327V9.31333C30.0477 10.2117 34.8327 15.5283 34.8327 22ZM31.166 22C31.166 16.94 27.0593 12.8333 21.9993 12.8333C16.9393 12.8333 12.8327 16.94 12.8327 22H31.166ZM14.666 34.8333C13.6577 34.8333 12.8327 35.6583 12.8327 36.6667C12.8327 37.675 13.6577 38.5 14.666 38.5C15.6743 38.5 16.4993 37.675 16.4993 36.6667C16.4993 35.6583 15.6743 34.8333 14.666 34.8333ZM21.9993 34.8333C20.991 34.8333 20.166 35.6583 20.166 36.6667C20.166 37.675 20.991 38.5 21.9993 38.5C23.0077 38.5 23.8327 37.675 23.8327 36.6667C23.8327 35.6583 23.0077 34.8333 21.9993 34.8333ZM29.3327 34.8333C28.3243 34.8333 27.4993 35.6583 27.4993 36.6667C27.4993 37.675 28.3243 38.5 29.3327 38.5C30.341 38.5 31.166 37.675 31.166 36.6667C31.166 35.6583 30.341 34.8333 29.3327 34.8333Z" fill="#5A6072"/>
</g>
<defs>
<clipPath id="clip0_171_390">
<rect width="44" height="44" fill="white"/>
</clipPath>
</defs>
</svg>
