<svg width="45" height="45" viewBox="0 0 45 45" fill="none" xmlns="http://www.w3.org/2000/svg">
<g clip-path="url(#clip0_301_308)">
<path d="M26.5981 11.1839C25.5728 12.9548 26.188 15.2476 27.9588 16.2729C29.7297 17.2981 32.0225 16.683 33.0478 14.9121C34.073 13.1412 33.4579 10.8484 31.687 9.82316C29.9161 8.79792 27.6233 9.41307 26.5981 11.1839Z" fill="#5A6072"/>
<path d="M29.5255 19.4045C29.5255 19.4045 26.487 17.6522 24.6789 16.6083C20.2423 14.0359 18.7138 8.33183 21.2862 3.89533L18.0614 2.03125C15.0975 7.13882 16.0295 13.4394 19.8695 17.5217L10.2695 34.1493L13.4944 36.0134L16.2905 31.1668L19.5154 33.0309L13.9231 42.7241L17.148 44.5881L28.873 24.2883C30.9981 27.1777 31.3522 31.1668 29.4509 34.4662L32.6757 36.3303C35.6583 31.2041 35.0618 24.0646 29.5255 19.4045Z" fill="#5A6072"/>
<path d="M23.7646 7.08303C25.1067 7.8473 26.803 7.39992 27.586 6.05779C28.3502 4.71565 27.9029 3.01934 26.5607 2.23643C25.2186 1.47216 23.5223 1.91954 22.7394 3.26167C21.9751 4.60381 22.4225 6.31876 23.7646 7.08303Z" fill="#5A6072"/>
</g>
<defs>
<clipPath id="clip0_301_308">
<rect width="44.7379" height="44.7379" fill="white"/>
</clipPath>
</defs>
</svg>
