<svg width="45" height="45" viewBox="0 0 45 45" fill="none" xmlns="http://www.w3.org/2000/svg">
<g clip-path="url(#clip0_304_364)">
<path d="M22.3573 7.4209H9.37048C6.29074 7.4209 3.80469 9.90695 3.80469 12.9867V27.8288C3.80469 30.9085 6.29074 33.3946 9.37048 33.3946L7.51521 35.2498V37.1051H9.37048L13.081 33.3946H16.7915V24.1183H7.51521V11.1314H24.2126V14.842H27.9231V12.9867C27.9231 9.90695 25.4371 7.4209 22.3573 7.4209ZM9.37048 25.9735C10.3909 25.9735 11.2257 26.8084 11.2257 27.8288C11.2257 28.8492 10.3909 29.6841 9.37048 29.6841C8.35008 29.6841 7.51521 28.8492 7.51521 27.8288C7.51521 26.8084 8.35008 25.9735 9.37048 25.9735ZM38.2569 17.9217C37.9972 17.1796 37.2922 16.6972 36.4573 16.6972H23.118C22.2646 16.6972 21.5781 17.1796 21.2998 17.9217L18.6653 25.5468V35.7693C18.6653 36.4743 19.2405 37.1051 19.9455 37.1051H21.0957C21.8007 37.1051 22.3573 36.4001 22.3573 35.6951V33.3946H37.1994V35.6951C37.1994 36.4001 37.7746 37.1051 38.4796 37.1051H39.6113C40.3163 37.1051 40.8914 36.4743 40.8914 35.7693L40.9099 33.2276V25.5468L38.2569 17.9217ZM23.118 18.5525H36.4573L38.3682 24.1183H21.2071L23.118 18.5525ZM22.3573 29.6841C21.3369 29.6841 20.5021 28.8492 20.5021 27.8288C20.5021 26.8084 21.3369 25.9735 22.3573 25.9735C23.3777 25.9735 24.2126 26.8084 24.2126 27.8288C24.2126 28.8492 23.3777 29.6841 22.3573 29.6841ZM37.1994 29.6841C36.179 29.6841 35.3442 28.8492 35.3442 27.8288C35.3442 26.8084 36.179 25.9735 37.1994 25.9735C38.2198 25.9735 39.0547 26.8084 39.0547 27.8288C39.0547 28.8492 38.2198 29.6841 37.1994 29.6841Z" fill="#5A6072"/>
</g>
<defs>
<clipPath id="clip0_304_364">
<rect width="44.5263" height="44.5263" fill="white" transform="translate(0.09375)"/>
</clipPath>
</defs>
</svg>
