<svg width="45" height="45" viewBox="0 0 45 45" fill="none" xmlns="http://www.w3.org/2000/svg">
<g clip-path="url(#clip0_301_339)">
<path d="M39.1468 11.1846H5.59339C3.5429 11.1846 1.86523 12.8622 1.86523 14.9127V29.8253C1.86523 31.8758 3.5429 33.5535 5.59339 33.5535H39.1468C41.1973 33.5535 42.8749 31.8758 42.8749 29.8253V14.9127C42.8749 12.8622 41.1973 11.1846 39.1468 11.1846ZM39.1468 29.8253H5.59339V14.9127H39.1468V29.8253ZM11.1856 27.9613H14.9138V24.2331H18.6419V20.505H14.9138V16.7768H11.1856V20.505H7.45747V24.2331H11.1856V27.9613Z" fill="#5A6072"/>
<path d="M27.0305 27.9614C28.5747 27.9614 29.8266 26.7095 29.8266 25.1653C29.8266 23.621 28.5747 22.3691 27.0305 22.3691C25.4862 22.3691 24.2344 23.621 24.2344 25.1653C24.2344 26.7095 25.4862 27.9614 27.0305 27.9614Z" fill="#5A6072"/>
<path d="M34.4856 22.3691C36.0298 22.3691 37.2817 21.1172 37.2817 19.573C37.2817 18.0287 36.0298 16.7769 34.4856 16.7769C32.9413 16.7769 31.6895 18.0287 31.6895 19.573C31.6895 21.1172 32.9413 22.3691 34.4856 22.3691Z" fill="#5A6072"/>
</g>
<defs>
<clipPath id="clip0_301_339">
<rect width="44.7379" height="44.7379" fill="white"/>
</clipPath>
</defs>
</svg>
