<svg width="44" height="44" viewBox="0 0 44 44" fill="none" xmlns="http://www.w3.org/2000/svg">
<path d="M34.1391 8.7992C32.4961 7.13955 30.5391 5.82366 28.3822 4.92828C26.2252 4.0329 23.9116 3.57596 21.5763 3.58409C11.7912 3.58409 3.81622 11.5591 3.81622 21.3441C3.81622 24.4804 4.6406 27.527 6.18184 30.2152L3.67285 39.4268L13.0816 36.9536C15.6802 38.3694 18.6013 39.1221 21.5763 39.1221C31.3613 39.1221 39.3363 31.1471 39.3363 21.3621C39.3363 16.6129 37.4904 12.1505 34.1391 8.7992ZM21.5763 36.1113C18.9239 36.1113 16.3253 35.3945 14.0493 34.0504L13.5117 33.7278L7.92021 35.1973L9.40768 29.7493L9.04926 29.1937C7.57567 26.8406 6.79321 24.1206 6.79117 21.3441C6.79117 13.2079 13.4221 6.57696 21.5584 6.57696C25.5011 6.57696 29.2108 8.11819 31.9886 10.9139C33.364 12.283 34.454 13.9116 35.1954 15.7051C35.9368 17.4986 36.3149 19.4214 36.3076 21.3621C36.3435 29.4984 29.7126 36.1113 21.5763 36.1113ZM29.6767 25.0718C29.2287 24.8567 27.0423 23.7815 26.648 23.6202C26.2358 23.4768 25.9491 23.4051 25.6444 23.8352C25.3398 24.2832 24.4975 25.2868 24.2466 25.5736C23.9957 25.8782 23.7268 25.9141 23.2788 25.6811C22.8308 25.4661 21.3971 24.9822 19.7125 23.4768C18.3863 22.294 17.5081 20.8423 17.2393 20.3943C16.9884 19.9463 17.2035 19.7133 17.4364 19.4803C17.6336 19.2832 17.8845 18.9606 18.0995 18.7097C18.3146 18.4588 18.4042 18.2617 18.5476 17.9749C18.6909 17.6703 18.6193 17.4194 18.5117 17.2043C18.4042 16.9893 17.5081 14.8029 17.1497 13.9068C16.7913 13.0466 16.4149 13.1541 16.1461 13.1362H15.2859C14.9812 13.1362 14.5153 13.2437 14.1031 13.6917C13.7088 14.1398 12.5618 15.215 12.5618 17.4015C12.5618 19.5879 14.1568 21.7026 14.3719 21.9893C14.587 22.294 17.5081 26.7743 21.9526 28.6919C23.01 29.1579 23.8344 29.4267 24.4795 29.6238C25.5369 29.9643 26.5047 29.9106 27.2753 29.803C28.1355 29.6776 29.9097 28.7277 30.2681 27.6883C30.6445 26.6489 30.6445 25.7707 30.519 25.5736C30.3936 25.3765 30.1248 25.2868 29.6767 25.0718Z" fill="#5A6072"/>
</svg>
