<svg width="21" height="21" viewBox="0 0 21 21" fill="none" xmlns="http://www.w3.org/2000/svg">
<path d="M17.7083 3.03125C15.7604 1.07292 13.1667 0 10.4062 0C4.71875 0 0.0833335 4.63542 0.0833335 10.3229C0.0833335 12.1458 0.5625 13.9167 1.45833 15.4792L0 20.8333L5.46875 19.3958C6.97917 20.2188 8.67708 20.6563 10.4062 20.6563C16.0937 20.6563 20.7292 16.0208 20.7292 10.3333C20.7292 7.57292 19.6562 4.97917 17.7083 3.03125ZM10.4062 18.9063C8.86458 18.9063 7.35417 18.4896 6.03125 17.7083L5.71875 17.5208L2.46875 18.375L3.33333 15.2083L3.125 14.8854C2.27083 13.5208 1.8125 11.9375 1.8125 10.3229C1.8125 5.59375 5.66667 1.73958 10.3958 1.73958C12.6875 1.73958 14.8437 2.63542 16.4583 4.26042C18.0833 5.88542 18.9688 8.04167 18.9688 10.3333C18.9896 15.0625 15.1354 18.9063 10.4062 18.9063ZM15.1146 12.4896C14.8542 12.3646 13.5833 11.7396 13.3542 11.6458C13.1146 11.5625 12.9479 11.5208 12.7708 11.7708C12.5937 12.0313 12.1042 12.6146 11.9583 12.7813C11.8125 12.9583 11.6562 12.9792 11.3958 12.8438C11.1354 12.7188 10.3021 12.4375 9.32292 11.5625C8.55208 10.875 8.04167 10.0313 7.88542 9.77083C7.73958 9.51042 7.86458 9.375 8 9.23958C8.11458 9.125 8.26042 8.9375 8.38542 8.79167C8.51042 8.64583 8.5625 8.53125 8.64583 8.36458C8.72917 8.1875 8.6875 8.04167 8.625 7.91667C8.5625 7.79167 8.04167 6.52083 7.83333 6C7.625 5.5 7.40625 5.5625 7.25 5.55208C7.09375 5.55208 6.92708 5.55208 6.75 5.55208C6.57292 5.55208 6.30208 5.61458 6.0625 5.875C5.83333 6.13542 5.16667 6.76042 5.16667 8.03125C5.16667 9.30208 6.09375 10.5313 6.21875 10.6979C6.34375 10.875 8.04167 13.4792 10.625 14.5938C11.2396 14.8646 11.7187 15.0208 12.0937 15.1354C12.7083 15.3333 13.2708 15.3021 13.7187 15.2396C14.2187 15.1667 15.25 14.6146 15.4583 14.0104C15.6771 13.4063 15.6771 12.8958 15.6042 12.7813C15.5312 12.6667 15.375 12.6146 15.1146 12.4896Z" fill="#E1E7F9"/>
</svg>
