<svg width="46" height="46" viewBox="0 0 46 46" fill="none" xmlns="http://www.w3.org/2000/svg">
<g clip-path="url(#clip0_301_344)">
<path d="M22.5608 15.0405C24.6374 15.0405 26.3208 13.3571 26.3208 11.2805C26.3208 9.20392 24.6374 7.52051 22.5608 7.52051C20.4842 7.52051 18.8008 9.20392 18.8008 11.2805C18.8008 13.3571 20.4842 15.0405 22.5608 15.0405Z" fill="#5A6072"/>
<path d="M39.4807 30.0809V26.3209C35.2695 26.3209 31.6599 24.5161 28.9527 21.2825L26.4335 18.2745C25.7191 17.4097 24.6663 16.9209 23.5571 16.9209H21.5831C20.4739 16.9209 19.4211 17.4097 18.7067 18.2745L16.1875 21.2825C13.4615 24.5161 9.85184 26.3209 5.64062 26.3209V30.0809C10.8482 30.0809 15.3979 27.8813 18.8007 23.9709V28.2009L11.5062 31.1149C10.2466 31.6225 9.40064 32.8634 9.40064 34.2358C9.40064 36.097 10.9046 37.601 12.7658 37.601H16.9207V36.661C16.9207 34.0666 19.0263 31.9609 21.6207 31.9609H27.2607C27.7871 31.9609 28.2007 32.3746 28.2007 32.901C28.2007 33.4274 27.7871 33.841 27.2607 33.841H21.6207C20.0603 33.841 18.8007 35.1006 18.8007 36.661V37.601H32.3555C34.2167 37.601 35.7207 36.097 35.7207 34.2358C35.7207 32.8634 34.8747 31.6225 33.6151 31.1149L26.3207 28.2009V23.9709C29.7235 27.8813 34.2731 30.0809 39.4807 30.0809Z" fill="#5A6072"/>
</g>
<defs>
<clipPath id="clip0_301_344">
<rect width="45.1202" height="45.1202" fill="white"/>
</clipPath>
</defs>
</svg>
